<?xml version="1.0" standalone="no"?>
<!DOCTYPE svg PUBLIC "-//W3C//DTD SVG 20010904//EN"
 "http://www.w3.org/TR/2001/REC-SVG-20010904/DTD/svg10.dtd">
<svg version="1.0" xmlns="http://www.w3.org/2000/svg"
 width="2946.000000pt" height="834.000000pt" viewBox="0 0 2946.000000 834.000000"
 preserveAspectRatio="xMidYMid meet">
<metadata>
Created by potrace 1.15, written by Peter Selinger 2001-2017
</metadata>
<g transform="translate(0.000000,834.000000) scale(0.100000,-0.100000)"
fill="#000000" stroke="none">
<path d="M22995 6139 c-388 -49 -719 -194 -935 -410 -95 -95 -106 -115 -112
-196 -4 -56 -2 -63 19 -74 13 -7 23 -20 23 -30 0 -23 57 -84 62 -67 6 16 304
-265 324 -305 22 -41 323 -339 335 -331 13 8 201 -173 213 -205 7 -18 10 -20
18 -10 7 11 11 11 15 2 2 -7 11 -13 18 -13 7 0 16 -6 18 -12 3 -8 6 -6 6 5 1
17 40 25 55 10 12 -12 108 -2 123 13 15 15 63 20 63 7 0 -5 25 -6 55 -5 30 2
53 7 50 12 -3 4 2 11 11 14 22 9 64 7 64 -2 0 -13 83 -1 98 14 20 20 62 18 63
-3 0 -11 3 -13 6 -5 3 7 24 12 53 12 33 0 50 5 54 15 8 22 66 20 67 -2 0 -11
3 -13 6 -5 2 6 20 12 40 12 19 0 41 7 49 15 22 21 64 20 65 -2 0 -11 3 -13 6
-5 3 7 24 12 53 12 33 0 50 5 54 15 9 24 56 17 129 -19 37 -19 67 -29 67 -24
0 6 9 0 20 -13 14 -17 20 -20 20 -9 0 12 3 11 11 -3 9 -15 13 -16 25 -6 12 10
16 8 21 -10 4 -17 8 -19 19 -10 11 9 15 7 20 -5 4 -11 13 -15 25 -11 13 4 19
1 19 -8 0 -10 7 -13 20 -10 14 4 20 0 20 -10 0 -10 6 -13 20 -10 14 4 20 0 20
-11 0 -9 7 -16 15 -16 8 0 15 -4 15 -10 0 -5 9 -10 20 -10 11 0 20 -4 20 -10
0 -5 9 -10 19 -10 11 0 22 -6 24 -12 4 -10 6 -10 6 0 1 11 4 11 15 -1 8 -8 12
-24 9 -40 -4 -20 -1 -27 10 -27 20 0 29 -27 17 -50 -14 -27 -12 -50 4 -50 19
0 28 -28 16 -50 -14 -27 -12 -50 5 -50 20 0 31 -48 16 -71 -15 -24 -14 -29 4
-29 20 0 31 -48 16 -72 -17 -27 -10 -30 40 -18 103 26 128 31 199 41 133 19
377 11 490 -16 34 -8 91 -23 143 -36 125 -33 206 -85 377 -239 172 -156 269
-218 375 -240 73 -16 299 -16 415 -1 47 6 121 16 165 21 44 5 115 14 158 20
106 14 176 13 289 -4 190 -29 348 -76 506 -152 l74 -36 26 23 c15 13 66 61
113 107 49 48 92 82 98 78 6 -4 89 71 195 179 102 102 185 188 185 191 1 2 1
8 1 13 0 16 353 346 357 334 6 -18 113 93 113 117 0 11 9 29 19 39 10 10 22
38 26 61 4 23 14 44 22 47 8 3 12 12 9 19 -7 17 21 84 35 84 6 0 8 9 4 19 -3
11 -1 29 5 40 5 12 15 30 20 41 6 11 10 27 10 35 0 9 7 18 16 22 9 3 14 13 11
24 -3 11 -1 22 4 25 5 3 9 16 9 30 0 15 6 24 16 24 11 0 13 6 9 19 -3 11 -2
28 3 38 12 22 28 62 36 86 3 9 12 17 21 17 13 0 13 3 3 19 -10 16 -9 25 2 45
11 22 11 30 0 51 -10 20 -11 28 -2 37 18 18 15 28 -8 28 -11 0 -20 6 -21 13
-2 30 -8 48 -24 63 -14 15 -18 15 -26 3 -7 -11 -15 -7 -39 20 -21 23 -30 29
-30 17 0 -24 -80 -23 -81 2 0 10 -3 12 -6 5 -2 -8 -22 -13 -44 -13 -28 0 -39
-4 -39 -15 0 -22 -50 -20 -51 3 0 10 -3 12 -6 5 -2 -7 -18 -13 -34 -13 -19 0
-29 -5 -29 -15 0 -22 -50 -20 -51 3 0 10 -3 12 -6 5 -2 -7 -17 -13 -33 -13
-16 0 -30 -7 -34 -15 -8 -21 -46 -19 -47 3 0 10 -3 12 -6 5 -2 -7 -17 -13 -33
-13 -16 0 -30 -7 -34 -15 -8 -21 -46 -19 -46 3 0 13 -2 14 -9 3 -6 -9 -20 -12
-40 -9 -22 3 -31 1 -31 -10 0 -12 -3 -12 -15 -2 -8 7 -15 20 -15 29 0 9 -9 22
-20 29 -11 7 -20 19 -20 27 0 8 -11 25 -25 39 -14 14 -25 35 -25 46 0 13 -8
24 -20 27 -10 3 -22 15 -26 27 -4 11 -17 31 -30 43 -13 12 -24 31 -24 43 0 13
-9 24 -25 30 -14 5 -25 17 -25 26 0 36 -54 67 -231 132 -481 178 -875 276
-1210 302 -190 15 -298 3 -544 -60 -212 -55 -357 -82 -520 -100 -60 -6 -146
-15 -190 -20 -116 -12 -350 -9 -494 6 -240 27 -376 54 -901 183 -293 72 -469
106 -639 126 -136 16 -403 18 -516 4z"/>
<path d="M300 4086 l0 -1206 250 0 250 0 0 501 0 501 148 -3 c143 -4 149 -5
214 -37 110 -54 152 -107 513 -649 l208 -313 300 0 299 0 -19 33 c-49 81 -332
531 -386 612 -122 184 -216 285 -346 374 -62 42 -70 51 -49 51 41 0 194 48
261 81 166 84 276 223 323 409 24 94 15 319 -16 410 -42 124 -116 230 -211
302 -72 55 -139 83 -256 110 -95 21 -120 22 -790 25 l-693 4 0 -1205z m1322
751 c99 -49 148 -132 148 -252 0 -129 -69 -232 -180 -269 -57 -18 -348 -34
-652 -36 l-138 0 0 296 0 295 383 -3 382 -3 57 -28z"/>
<path d="M2730 4085 l0 -1205 245 0 245 0 0 1205 0 1205 -245 0 -245 0 0
-1205z"/>
<path d="M3680 4085 l0 -1205 250 0 250 0 0 505 0 505 505 0 505 0 0 210 0
210 -505 0 -505 0 0 280 0 280 585 0 585 0 0 210 0 210 -835 0 -835 0 0 -1205z"/>
<path d="M5570 5080 l0 -210 355 0 355 0 0 -995 0 -995 250 0 250 0 0 995 0
995 355 0 355 0 0 210 0 210 -960 0 -960 0 0 -210z"/>
<path d="M8513 5228 c13 -35 208 -577 433 -1205 l409 -1143 266 0 266 0 426
1188 c234 653 429 1195 432 1205 7 16 -10 17 -258 17 l-265 0 -294 -879 -293
-879 -300 876 -300 877 -273 3 -272 2 23 -62z"/>
<path d="M11356 5098 c-41 -106 -253 -649 -469 -1205 l-394 -1013 266 0 266 0
96 268 97 267 479 3 480 2 103 -270 103 -270 273 0 272 0 -482 1203 -483 1202
-265 3 -266 2 -76 -192z m503 -838 c83 -222 151 -408 151 -412 0 -4 -142 -8
-315 -8 -185 0 -315 4 -315 9 0 11 298 830 307 845 4 5 10 1 14 -10 4 -10 75
-201 158 -424z"/>
<path d="M17300 4085 l0 -1205 925 0 925 0 0 205 0 205 -675 0 -675 0 0 320 0
320 605 0 605 0 0 210 0 210 -605 0 -605 0 0 260 0 260 650 0 650 0 0 210 0
210 -900 0 -900 0 0 -1205z"/>
<path d="M19321 5253 c13 -21 212 -335 441 -698 l418 -660 0 -507 0 -508 250
0 250 0 0 504 0 504 411 648 c227 357 427 673 445 702 l34 52 -291 -2 -290 -3
-270 -465 c-149 -256 -272 -466 -273 -467 -1 -1 -128 209 -282 467 l-279 470
-293 0 -294 0 23 -37z"/>
<path d="M13180 4075 l0 -1195 855 0 855 0 0 205 0 205 -605 0 -605 0 0 990 0
990 -250 0 -250 0 0 -1195z"/>
<path d="M15250 4075 l0 -1195 855 0 855 0 0 205 0 205 -605 0 -605 0 0 990 0
990 -250 0 -250 0 0 -1195z"/>
<path d="M25790 2510 c-350 -28 -652 -86 -962 -187 -171 -56 -178 -59 -178
-84 0 -15 6 -29 14 -32 9 -4 13 -15 10 -30 -3 -18 3 -29 21 -41 14 -9 25 -25
25 -36 0 -11 4 -20 9 -20 5 0 8 -8 7 -17 0 -10 9 -19 24 -23 18 -4 26 -14 28
-33 2 -15 12 -32 23 -37 10 -6 19 -19 19 -30 0 -11 9 -24 20 -30 11 -6 20 -20
20 -31 0 -11 7 -22 15 -25 8 -4 15 -16 15 -28 0 -12 9 -28 20 -36 11 -8 20
-21 20 -28 0 -8 16 -29 35 -48 19 -18 35 -42 35 -53 0 -11 9 -23 20 -26 13 -4
20 -15 20 -30 0 -14 9 -29 20 -35 11 -6 20 -19 20 -29 0 -10 7 -24 15 -31 8
-7 15 -20 15 -29 0 -9 9 -22 20 -29 11 -7 20 -20 20 -30 0 -10 9 -24 20 -32
11 -8 20 -22 20 -32 0 -10 5 -18 10 -18 6 0 10 -8 10 -18 0 -11 11 -24 25 -30
14 -7 25 -20 25 -31 0 -11 9 -25 20 -31 11 -6 20 -19 20 -30 0 -11 9 -24 20
-30 11 -6 20 -19 20 -30 0 -11 8 -27 19 -37 10 -10 22 -28 25 -40 4 -13 12
-23 17 -23 5 0 9 -7 9 -15 0 -8 16 -32 35 -52 20 -21 38 -48 41 -60 3 -12 12
-24 20 -27 8 -3 14 -14 14 -26 0 -11 9 -25 20 -32 11 -7 20 -23 20 -35 0 -12
9 -27 20 -33 11 -6 20 -19 20 -30 0 -11 8 -24 19 -29 10 -6 21 -24 25 -41 3
-18 10 -29 16 -25 5 3 10 1 10 -4 0 -6 9 -20 20 -31 11 -11 20 -27 20 -35 0
-8 5 -15 11 -15 5 0 17 -16 25 -35 8 -19 19 -35 24 -35 6 0 10 -11 10 -25 0
-14 8 -29 20 -35 11 -6 20 -19 20 -30 0 -11 9 -24 20 -30 11 -6 20 -19 20 -30
0 -10 6 -25 13 -32 6 -7 18 -25 26 -40 8 -16 18 -28 23 -28 19 0 66 -43 61
-56 -7 -18 23 -19 31 -1 5 9 7 9 12 0 8 -17 110 -17 118 0 5 9 7 9 12 0 8 -18
34 -16 34 2 0 8 8 15 18 15 9 0 25 14 34 30 17 29 38 40 38 20 0 -6 11 0 25
14 14 14 25 30 25 36 0 6 8 9 18 6 11 -4 23 2 32 14 8 11 20 20 28 20 16 0 62
45 62 61 0 6 7 8 16 5 10 -4 26 5 44 24 15 16 33 30 40 30 14 0 34 19 43 43 7
18 27 24 27 7 0 -6 11 0 25 14 14 14 25 30 25 36 0 7 8 9 20 5 11 -3 20 -2 20
3 0 5 12 15 28 22 38 19 72 51 72 67 0 7 5 13 10 13 6 0 10 -5 10 -11 0 -6 15
2 34 18 18 15 31 31 29 35 -2 4 1 9 7 13 5 3 10 1 10 -6 0 -18 30 11 41 40 7
18 13 21 21 13 9 -9 17 -7 35 10 13 12 23 26 23 32 0 6 14 24 30 40 17 16 30
35 30 43 0 7 7 16 16 20 11 4 14 13 9 30 -4 16 -1 25 9 29 11 4 13 14 9 35 -4
22 -2 29 11 29 12 0 14 7 10 30 -5 22 -2 31 10 36 10 4 16 18 16 35 0 16 5 29
10 29 6 0 10 16 10 35 0 19 5 35 11 35 7 0 9 10 5 25 -5 18 -2 27 9 31 12 5
14 14 10 35 -5 22 -3 29 9 29 12 0 14 7 10 30 -5 21 -2 31 8 35 10 4 13 15 10
30 -3 17 1 27 12 31 10 4 16 18 16 35 0 16 5 29 11 29 7 0 9 11 5 30 -4 23 -1
32 10 37 8 3 14 15 13 27 -2 36 1 47 11 41 6 -4 9 6 8 26 -2 26 1 34 16 37 18
4 84 63 89 79 1 5 8 7 16 6 15 -1 47 28 74 70 16 24 47 41 32 17 -3 -5 -3 -10
0 -10 11 0 65 61 65 74 0 15 38 38 50 31 10 -6 82 60 74 68 -2 2 3 10 12 18
13 11 18 11 21 2 4 -12 78 57 99 93 7 10 19 18 28 18 21 -2 95 75 96 99 0 21
2 21 -85 3 -300 -63 -536 -88 -800 -88 -305 0 -322 5 -587 159 -234 137 -231
136 -488 139 -113 1 -252 -2 -310 -6z"/>
</g>
</svg>
