<?xml version="1.0" standalone="no"?>
<!DOCTYPE svg PUBLIC "-//W3C//DTD SVG 20010904//EN"
 "http://www.w3.org/TR/2001/REC-SVG-20010904/DTD/svg10.dtd">
<svg version="1.0" xmlns="http://www.w3.org/2000/svg"
 width="722.000000pt" height="834.000000pt" viewBox="0 0 722.000000 834.000000"
 preserveAspectRatio="xMidYMid meet">
<metadata>
Created by potrace 1.15, written by Peter Selinger 2001-2017
</metadata>
<g transform="translate(0.000000,834.000000) scale(0.100000,-0.100000)"
fill="#000000" stroke="none">
<path d="M1125 6034 c-291 -29 -478 -76 -680 -174 -161 -77 -310 -192 -406
-313 -37 -46 -39 -53 -39 -115 0 -56 3 -69 20 -80 11 -7 20 -18 20 -26 0 -21
35 -56 56 -56 21 0 324 -294 324 -314 0 -20 312 -325 327 -319 18 7 203 -175
203 -199 0 -21 16 -24 23 -5 4 7 6 6 6 -4 1 -21 38 -32 45 -13 7 17 56 19 56
2 0 -9 16 -12 55 -10 37 3 55 8 55 17 0 7 7 16 16 19 26 10 54 7 54 -6 0 -9
15 -12 50 -10 33 3 50 8 50 17 0 7 7 16 16 19 25 9 64 7 64 -4 0 -5 20 -10 45
-10 32 0 45 4 45 14 0 14 21 26 46 26 8 0 14 -6 14 -12 0 -9 16 -12 54 -10 43
3 55 8 59 23 6 22 67 28 67 6 0 -8 14 -11 45 -9 30 3 45 9 45 18 0 20 50 30
64 13 15 -19 106 -14 106 5 0 27 67 36 76 12 3 -8 12 -12 20 -9 8 3 14 0 14
-6 0 -6 9 -11 20 -11 11 0 20 -4 20 -10 0 -5 9 -10 20 -10 11 0 20 -6 21 -12
0 -7 4 -4 9 7 5 11 9 14 9 7 1 -7 8 -20 16 -28 13 -14 15 -13 16 3 0 14 2 12
10 -6 9 -23 10 -24 24 -5 14 19 14 18 15 -2 0 -30 11 -36 26 -16 12 16 13 15
14 -5 0 -13 5 -23 10 -23 6 0 10 5 10 11 0 6 6 9 13 6 6 -2 11 -10 9 -17 -2
-7 5 -9 18 -5 13 4 22 1 26 -9 3 -8 11 -13 18 -10 7 3 21 -7 32 -21 10 -14 27
-25 36 -25 10 0 18 -4 18 -10 0 -5 9 -10 19 -10 11 0 22 -6 24 -12 3 -7 6 -4
7 7 1 19 1 19 15 1 9 -12 12 -30 8 -49 -4 -20 -3 -28 4 -24 6 4 17 0 24 -9 10
-12 10 -20 1 -35 -14 -22 -16 -63 -3 -55 5 3 15 -1 22 -10 10 -12 10 -20 1
-35 -16 -26 -15 -36 8 -59 21 -21 26 -55 10 -65 -15 -9 -12 -25 4 -25 18 0 31
-49 17 -63 -6 -6 -11 -17 -11 -24 0 -13 46 -9 85 7 20 9 36 12 160 32 128 22
342 12 500 -22 28 -6 65 -14 83 -17 18 -3 35 -9 38 -14 3 -5 14 -9 25 -9 25 0
102 -35 159 -74 51 -33 81 -58 194 -160 157 -142 257 -204 362 -226 67 -13
326 -8 469 9 218 27 256 32 339 38 133 9 300 -18 491 -79 79 -25 85 -28 185
-76 l85 -41 106 105 c69 69 110 103 120 99 10 -4 73 53 192 174 97 99 178 186
178 193 3 22 351 354 357 339 3 -8 22 5 58 40 29 29 51 56 48 60 -7 13 15 59
29 59 8 0 13 13 14 37 1 25 8 43 22 54 11 9 18 19 15 22 -11 10 9 79 25 85 10
5 17 21 18 46 2 22 9 46 17 55 7 9 11 22 9 29 -3 7 3 16 13 18 15 4 19 16 21
51 2 44 17 68 36 56 5 -3 5 2 -1 12 -7 13 -7 27 0 44 22 54 26 67 32 83 3 10
12 18 21 18 18 0 20 17 3 22 -9 3 -9 12 1 36 11 26 11 35 1 47 -10 12 -10 22
-2 39 9 20 8 25 -9 29 -12 3 -19 14 -19 29 0 14 -12 35 -27 49 -14 13 -23 18
-19 12 5 -9 0 -13 -13 -13 -14 0 -21 6 -21 19 0 10 -9 21 -20 24 -11 3 -18 0
-17 -7 1 -6 -14 -12 -35 -14 -26 -2 -38 1 -38 10 0 9 -13 12 -44 10 -33 -3
-45 -9 -49 -23 -6 -21 -47 -27 -47 -6 0 22 -67 9 -73 -14 -6 -21 -47 -27 -47
-6 0 22 -67 9 -73 -14 -7 -24 -47 -26 -48 -1 0 9 -3 12 -5 6 -2 -6 -18 -8 -34
-6 -22 3 -30 0 -30 -11 0 -23 -33 -31 -47 -11 -7 10 -13 13 -13 8 0 -6 -13 -9
-30 -6 -18 3 -30 0 -30 -7 0 -22 -21 -10 -31 18 -6 16 -17 32 -25 35 -8 3 -14
13 -14 22 0 9 -11 27 -25 40 -14 13 -25 34 -25 49 0 18 -5 25 -19 25 -12 0
-23 9 -27 23 -4 12 -17 32 -30 43 -15 15 -21 29 -17 42 4 16 -1 23 -21 28 -15
3 -29 15 -32 28 -14 50 -116 97 -461 212 -354 118 -642 183 -928 210 -205 19
-295 10 -553 -56 -226 -58 -306 -74 -473 -94 -309 -38 -478 -41 -724 -15 -203
21 -331 47 -750 150 -355 87 -539 125 -688 144 -122 15 -381 26 -452 19z"/>
<path d="M3740 2469 c-330 -25 -677 -94 -945 -189 -49 -17 -105 -36 -122 -42
-24 -8 -33 -17 -33 -34 0 -12 7 -25 16 -28 11 -4 14 -14 11 -29 -6 -21 17 -64
31 -60 4 2 7 -3 7 -10 2 -30 26 -67 44 -67 20 0 31 -18 31 -51 0 -10 5 -18 11
-16 7 1 16 -13 21 -30 5 -18 14 -32 20 -30 6 1 15 -13 20 -30 5 -18 15 -33 23
-33 8 0 15 -9 15 -19 0 -11 7 -26 15 -35 8 -8 15 -20 15 -26 0 -6 18 -29 40
-51 22 -22 40 -49 40 -60 0 -10 7 -19 15 -19 9 0 15 -9 15 -25 0 -14 8 -29 20
-35 11 -6 20 -19 20 -28 0 -10 9 -25 20 -35 12 -10 18 -22 15 -27 -3 -5 3 -15
15 -22 11 -7 20 -19 20 -27 0 -8 9 -24 19 -35 11 -12 23 -37 28 -56 7 -25 16
-36 34 -40 16 -4 25 -14 27 -30 2 -14 13 -30 23 -38 10 -7 19 -21 19 -31 0
-11 6 -21 14 -24 7 -3 16 -19 19 -36 4 -18 13 -31 22 -31 8 0 15 -9 15 -20 0
-11 9 -28 19 -37 11 -9 18 -20 15 -24 -2 -4 14 -25 36 -47 22 -21 40 -48 40
-60 0 -13 6 -22 15 -22 9 0 15 -10 15 -26 0 -17 6 -28 20 -31 13 -3 20 -14 20
-29 0 -13 9 -28 20 -34 11 -6 20 -19 20 -30 0 -10 8 -23 17 -29 10 -5 18 -15
19 -23 0 -7 2 -21 2 -30 1 -10 6 -18 12 -18 17 0 50 -34 50 -52 0 -9 9 -22 20
-28 12 -6 20 -21 20 -35 0 -16 6 -25 15 -25 9 0 18 -12 21 -29 4 -17 12 -32
20 -35 8 -3 14 -14 14 -25 0 -11 8 -26 18 -33 10 -7 22 -25 26 -40 3 -16 12
-28 20 -28 7 0 16 -13 20 -30 3 -16 10 -30 16 -30 18 0 70 -43 70 -57 0 -17
16 -17 24 0 5 9 7 9 12 0 8 -17 114 -18 114 -1 0 9 3 9 12 0 17 -17 38 -15 38
4 0 8 5 12 10 9 15 -9 40 14 40 35 0 10 7 20 15 24 10 3 15 -1 15 -11 0 -14 3
-14 21 3 12 10 26 30 31 44 6 17 12 21 17 12 5 -9 15 -6 37 13 16 14 34 25 39
25 6 0 21 16 34 36 15 21 27 31 31 24 4 -7 19 2 38 24 17 20 37 35 44 34 6 -2
18 10 26 25 10 21 19 27 33 24 13 -3 27 5 44 25 14 16 29 27 34 24 4 -3 16 3
26 14 10 11 25 20 32 20 17 0 52 39 53 59 0 8 7 11 19 8 20 -5 63 27 74 53 4
12 6 12 6 1 1 -19 41 16 41 36 0 8 8 13 19 11 18 -3 61 27 61 43 0 4 14 23 30
41 17 18 30 38 30 45 0 7 7 13 16 13 12 0 14 7 9 30 -5 23 -3 30 8 30 10 0 15
10 13 33 0 20 3 31 11 30 8 -2 10 8 6 32 -5 29 -3 35 12 35 13 0 16 6 12 26
-3 17 0 28 10 31 10 4 12 14 8 34 -5 23 -3 29 10 29 13 0 15 6 10 30 -5 24 -3
30 10 30 13 0 15 7 9 35 -5 28 -3 35 10 35 13 0 15 4 7 18 -12 22 5 56 22 45
8 -5 8 -2 -1 9 -15 19 -6 48 15 48 12 0 14 7 10 30 -5 23 -3 30 9 30 12 0 14
7 8 35 -5 28 -3 35 10 35 12 0 14 7 10 30 -5 23 -3 30 9 30 11 0 15 9 13 32 0
18 4 33 10 33 17 0 79 59 79 75 0 9 8 14 19 13 20 -1 56 30 75 66 8 14 18 20
29 17 11 -3 26 5 39 22 13 15 32 38 44 52 13 16 22 21 25 13 6 -13 76 51 87
80 7 19 27 23 27 5 0 -16 78 61 94 92 7 15 20 24 31 23 20 -2 95 71 95 93 0
20 -20 18 -193 -15 -282 -54 -476 -72 -717 -67 -102 2 -209 9 -238 15 -62 13
-150 55 -291 141 -122 74 -208 114 -279 129 -60 13 -350 12 -522 0z"/>
</g>
</svg>
