<svg width="26" height="25" viewBox="0 0 26 25" fill="none" xmlns="http://www.w3.org/2000/svg">
<g clip-path="url(#clip0_4023_440)">
<path d="M9.97415 10.3294C10.9227 10.3294 11.6917 9.56042 11.6917 8.61184C11.6917 7.66326 10.9227 6.89429 9.97415 6.89429C9.02557 6.89429 8.25659 7.66326 8.25659 8.61184C8.25659 9.56042 9.02557 10.3294 9.97415 10.3294Z" fill="#1F5DBD"/>
<path d="M24.0725 14.9333C23.2614 14.1699 22.2357 13.669 21.1145 13.5259V4.79495C21.1145 3.8646 20.7328 3.02968 20.1364 2.40945C19.5162 1.78922 18.6813 1.4314 17.7509 1.4314H3.91506C2.98472 1.4314 2.1498 1.81308 1.52957 2.40945C0.909338 3.02968 0.551514 3.8646 0.551514 4.79495V15.7921V16.8178V19.0364C0.551514 19.9667 0.933193 20.8016 1.52957 21.4219C2.1498 22.0421 2.98472 22.3999 3.91506 22.3999H17.2977C18.1803 23.1156 19.2777 23.5688 20.4943 23.5688C21.9017 23.5688 23.166 22.9963 24.0725 22.0898C24.979 21.1833 25.5515 19.919 25.5515 18.5115C25.5515 17.1041 24.979 15.8398 24.0725 14.9333ZM1.81583 4.79495C1.81583 4.22243 2.05438 3.69762 2.43606 3.33979C2.81773 2.95811 3.34254 2.71956 3.91506 2.71956H17.7509C18.3235 2.71956 18.8483 2.95811 19.2299 3.33979C19.6116 3.72147 19.8502 4.24628 19.8502 4.8188V12.2615L16.3196 8.73101C16.0811 8.49247 15.6756 8.46861 15.4132 8.73101L10.0935 14.0745L6.4914 10.4486C6.25285 10.21 5.84731 10.1862 5.58491 10.4486L1.81583 14.2654V4.79495ZM3.89121 21.1833V21.1356C3.31869 21.1356 2.79388 20.897 2.4122 20.5154C2.05438 20.1337 1.81583 19.6089 1.81583 19.0364V16.8178V16.0783L6.03815 11.8322L9.64025 15.4343C9.8788 15.6728 10.2843 15.6728 10.5467 15.4343L15.8664 10.0907L19.3492 13.5974C19.2777 13.6213 19.2061 13.6451 19.1345 13.669C19.0391 13.6928 18.9437 13.7167 18.8244 13.7644C18.729 13.7883 18.6336 13.836 18.5382 13.8598C18.4666 13.8837 18.4189 13.9075 18.3473 13.9553C18.2519 14.003 18.1803 14.0268 18.1088 14.0745C17.9895 14.1461 17.8702 14.2177 17.7509 14.2892C17.6794 14.3369 17.6317 14.3608 17.5601 14.4085C17.5124 14.4324 17.4885 14.4562 17.4408 14.4801C17.2261 14.6232 17.0353 14.7902 16.8683 14.981C15.9618 15.8875 15.3893 17.1518 15.3893 18.5593C15.3893 18.9171 15.437 19.2511 15.5086 19.6089C15.5324 19.7043 15.5563 19.7759 15.5801 19.8713C15.6517 20.1098 15.7233 20.3484 15.8187 20.5869V20.6108C15.9141 20.8016 16.0095 21.0163 16.1288 21.1833H3.89121ZM23.1422 21.1833C22.4504 21.8751 21.52 22.2806 20.4704 22.2806C19.4685 22.2806 18.5382 21.8751 17.8702 21.231C17.7748 21.1356 17.6794 21.0163 17.584 20.9209C17.5124 20.8493 17.4408 20.7539 17.3693 20.6824C17.2738 20.5631 17.2023 20.4199 17.1307 20.2768C17.083 20.1814 17.0353 20.1098 16.9876 20.0144C16.9399 19.8951 16.8922 19.752 16.8683 19.6089C16.8445 19.5135 16.7967 19.3942 16.7729 19.2988C16.7252 19.0602 16.7013 18.7978 16.7013 18.5354C16.7013 17.4858 17.1307 16.5554 17.7987 15.8636C18.4666 15.1719 19.4208 14.7663 20.4704 14.7663C21.52 14.7663 22.4504 15.1957 23.1422 15.8636C23.834 16.5554 24.2395 17.4858 24.2395 18.5354C24.2395 19.5612 23.8101 20.4915 23.1422 21.1833Z" fill="#1F5DBD"/>
<path d="M20.9235 15.9592C20.8758 15.9114 20.8043 15.8637 20.7088 15.816C20.6373 15.7922 20.5657 15.7683 20.4941 15.7683C20.4703 15.7683 20.4703 15.7683 20.4703 15.7683C20.4464 15.7683 20.4464 15.7683 20.4464 15.7683C20.3749 15.7683 20.3033 15.7922 20.2317 15.816C20.1602 15.8399 20.0886 15.8876 20.017 15.9592L18.538 17.4382C18.2995 17.6767 18.2995 18.0822 18.538 18.3446C18.7766 18.5832 19.1821 18.5832 19.4445 18.3446L19.8262 17.963V20.587C19.8262 20.9448 20.1125 21.2311 20.4703 21.2311C20.8281 21.2311 21.1144 20.9448 21.1144 20.587V17.963L21.4961 18.3446C21.7346 18.5832 22.1401 18.5832 22.4025 18.3446C22.6411 18.1061 22.6411 17.7006 22.4025 17.4382L20.9235 15.9592Z" fill="#1F5DBD"/>
</g>
<defs>
<clipPath id="clip0_4023_440">
<rect width="25" height="25" fill="white" transform="translate(0.551514)"/>
</clipPath>
</defs>
</svg>
