<?xml version="1.0" standalone="no"?>
<!DOCTYPE svg PUBLIC "-//W3C//DTD SVG 1.1//EN" "http://www.w3.org/Graphics/SVG/1.1/DTD/svg11.dtd" >
<svg xmlns="http://www.w3.org/2000/svg">
<metadata>Generated by IcoMoon</metadata>
<defs>
<font id="zarq" horiz-adv-x="1024">
<font-face units-per-em="1024" ascent="960" descent="-64" />
<missing-glyph horiz-adv-x="1024" />
<glyph unicode="&#x20;" horiz-adv-x="512" d="" />
<glyph unicode="&#xe900;" glyph-name="1" d="M992.718 559.079c-38.503 63.32-87.072 119.881-143.776 167.436l119.422 119.934c7.769 8.078 12.069 18.898 11.972 30.129s-4.583 21.974-12.491 29.916c-7.908 7.942-18.605 12.446-29.788 12.544s-21.957-4.22-30.001-12.022l-129.872-130.599c-80.508 48.024-172.547 73.053-266.184 72.389-264.052 0-414.524-181.529-480.718-289.726-20.45-33.218-31.282-71.5-31.282-110.553s10.832-77.336 31.282-110.553c38.503-63.32 87.071-119.881 143.776-167.436l-119.422-119.934c-4.074-3.952-7.323-8.677-9.558-13.904-2.235-5.225-3.412-10.846-3.461-16.534s1.030-11.327 3.175-16.592c2.144-5.264 5.311-10.046 9.316-14.068s8.767-7.203 14.008-9.356 10.858-3.238 16.521-3.188c5.663 0.049 11.26 1.231 16.463 3.475s9.909 5.508 13.845 9.599l130.17 130.728c80.409-48.016 172.338-73.089 265.886-72.518 264.052 0 414.523 181.529 480.718 289.726 20.45 33.218 31.282 71.5 31.282 110.553s-10.832 77.336-31.282 110.553zM103.96 382.819c-12.15 19.745-18.585 42.497-18.585 65.707s6.435 45.962 18.585 65.707c56.895 92.777 185.488 248.905 408.040 248.905 70.812 0.398 140.63-16.74 203.274-49.901l-85.856-86.224c-40.948 27.302-90.040 39.536-138.947 34.625s-94.616-26.664-129.37-61.567-56.414-80.808-61.305-129.924c-4.89-49.116 7.292-98.419 34.477-139.542l-98.523-98.945c-52.243 42.417-96.824 93.551-131.791 151.159zM639.953 448.526c0-34.081-13.481-66.765-37.476-90.864s-56.541-37.637-90.477-37.637c-19 0.074-37.737 4.468-54.807 12.85l169.964 170.692c8.348-17.142 12.722-35.959 12.796-55.041zM384.047 448.526c0 34.081 13.481 66.765 37.476 90.864s56.541 37.637 90.477 37.637c19-0.074 37.737-4.468 54.807-12.85l-169.964-170.692c-8.348 17.142-12.722 35.959-12.796 55.041zM920.040 382.819c-56.895-92.776-185.488-248.905-408.040-248.905-70.812-0.398-140.63 16.74-203.274 49.901l85.856 86.224c40.948-27.302 90.040-39.536 138.947-34.625s94.616 26.664 129.37 61.567 56.414 80.808 61.305 129.924c4.89 49.116-7.292 98.419-34.477 139.542l98.523 98.945c52.242-42.417 96.824-93.551 131.791-151.159 12.15-19.745 18.586-42.497 18.586-65.707s-6.436-45.962-18.586-65.707z" />
<glyph unicode="&#xe901;" glyph-name="2" d="M896 960h-768c-70.592 0-128-57.408-128-128v-768c0-70.591 57.408-128 128-128h768c70.591 0 128 57.409 128 128v768c0 70.592-57.409 128-128 128zM85.333 64v768c0 23.53 19.136 42.667 42.667 42.667h170.667v-853.334h-170.667c-23.53 0-42.667 19.137-42.667 42.667zM938.667 64c0-23.53-19.137-42.667-42.667-42.667h-512v853.334h512c23.53 0 42.667-19.136 42.667-42.667v-768z" />
<glyph unicode="&#xe902;" glyph-name="3" d="M460.8 960c254.494 0 460.799-206.307 460.8-460.8 0-108.796-37.735-208.76-100.79-287.59l188.2-188.2c19.998-19.994 19.998-52.414 0-72.41-19.995-19.997-52.414-19.997-72.41 0l-188.2 188.201c-78.832-63.060-178.799-100.801-287.6-100.801-254.493 0.001-460.8 206.306-460.8 460.8 0.001 254.493 206.307 460.799 460.8 460.8zM460.8 857.6c-197.938-0.001-358.399-160.462-358.4-358.4s160.461-358.399 358.4-358.4c96.63 0 184.312 38.257 248.77 100.43 1.317 1.699 2.75 3.34 4.31 4.9 1.553 1.553 3.189 2.979 4.88 4.291 62.179 64.459 100.44 152.145 100.44 248.78-0.001 197.939-160.461 358.4-358.4 358.4z" />
<glyph unicode="&#xe903;" glyph-name="4" d="M832 320h-106.667v256h106.667c105.856 0 192 86.144 192 192s-86.144 192-192 192c-105.856 0-192-86.144-192-192v-106.667h-256v106.667c0 105.856-86.144 192-192 192s-192-86.144-192-192c0-105.856 86.144-192 192-192h106.667v-256h-106.667c-105.856 0-192-86.144-192-192s86.144-192 192-192c105.856 0 192 86.144 192 192v106.667h256v-106.667c0-105.856 86.144-192 192-192s192 86.144 192 192c0 105.856-86.144 192-192 192zM725.333 768c0 58.795 47.83 106.667 106.667 106.667s106.667-47.872 106.667-106.667c0-58.795-47.83-106.667-106.667-106.667h-106.667v106.667zM192 661.333c-58.837 0-106.667 47.872-106.667 106.667s47.83 106.667 106.667 106.667c58.837 0 106.667-47.872 106.667-106.667v-106.667h-106.667zM298.667 128c0-58.795-47.83-106.667-106.667-106.667s-106.667 47.872-106.667 106.667c0 58.795 47.83 106.667 106.667 106.667h106.667v-106.667zM384 320v256h256v-256h-256zM832 21.333c-58.837 0-106.667 47.872-106.667 106.667v106.667h106.667c58.837 0 106.667-47.872 106.667-106.667s-47.83-106.667-106.667-106.667z" />
<glyph unicode="&#xe904;" glyph-name="5" d="M624.736 919.040h-530.936c-51.425 0-93.263-41.936-93.263-93.484 0-682.046-3.972-640.069 9.682-653.755 198.78-199.254 186.177-187.684 193.129-191.13 9.942-5.001-17.263-3.5 421.386-3.5 51.424 0 93.263 41.937 93.263 93.484v754.901c0.002 51.548-41.837 93.484-93.261 93.484zM185.047 90.158l-71.789 71.961h71.789v-71.961zM651.97 70.655c0-15.051-12.215-27.296-27.233-27.296h-373.659v151.855c0 18.278-14.782 33.095-33.015 33.095h-151.496v597.247c0 15.052 12.216 27.297 27.233 27.297h530.936c15.016 0 27.233-12.245 27.233-27.297v-754.901zM871 825.556v-754.903c0-51.547-41.838-93.484-93.263-93.484-18.232 0-33.015 14.816-33.015 33.095 0 18.277 14.782 33.094 33.015 33.094 15.016 0 27.233 12.245 27.233 27.296v754.903c0 15.052-12.215 27.297-27.233 27.297-18.232 0-33.015 14.815-33.015 33.093s14.782 33.094 33.015 33.094c51.425 0 93.263-41.936 93.263-93.484zM1024 825.556v-754.903c0-51.547-41.837-93.484-93.263-93.484-18.232 0-33.015 14.816-33.015 33.095 0 18.277 14.782 33.094 33.015 33.094 15.015 0 27.233 12.245 27.233 27.296v754.903c0 15.052-12.216 27.297-27.233 27.297-18.232 0-33.015 14.815-33.015 33.093s14.782 33.094 33.015 33.094c51.426 0 93.263-41.936 93.263-93.484z" />
<glyph unicode="&#xe905;" glyph-name="6" d="M955.34 703.97c43.587-75.326 68.65-162.74 68.65-256 0-282.782-229.218-512.001-512-512.001-116.433 0-223.733 38.975-309.689 104.451v-73.21c-0.003-16.941-13.719-30.65-30.661-30.65-16.941 0-30.658 13.709-30.66 30.65v140.41c0.003 6.614 2.11 12.731 5.67 17.74 1.010 1.438 2.154 2.815 3.44 4.1 6.643 6.624 15.572 9.549 24.25 8.82h137.71l6.19-0.6c13.964-2.867 24.462-15.249 24.471-30.060-0.002-14.815-10.505-27.19-24.471-30.061l-6.19-0.65h-55.609c72.613-50.193 160.603-79.618 255.549-79.619 248.895 0 450.69 201.784 450.69 450.68 0 82.119-22.059 158.994-60.42 225.289l26.561 15.33 26.52 15.38zM512 960c116.428 0 223.719-38.969 309.67-104.44v73.18c0.010 16.935 13.773 30.66 30.71 30.66 16.929-0.010 30.65-13.731 30.661-30.66v-140.41c0-7.776-2.924-14.848-7.69-20.251-0.289-0.331-0.585-0.658-0.89-0.98-0.178-0.185-0.347-0.379-0.53-0.56-0.008-0.008-0.011-0.022-0.019-0.030-6.743-6.735-15.847-9.682-24.651-8.84h-137.29c-16.943 0-30.66 13.718-30.66 30.661 0 16.942 13.718 30.66 30.66 30.66h55.6c-72.618 50.204-160.609 79.64-255.57 79.64-248.894 0-450.678-201.787-450.68-450.68 0.003-76.978 19.393-149.344 53.42-212.709l6.99-12.541c8.484-14.665 3.485-33.454-11.18-41.94-12.821-7.41-28.773-4.505-38.25 6.141l-3.64 5.049c-43.581 75.32-68.656 162.747-68.66 256 0.002 282.78 229.219 512.050 512 512.050zM571.92 718.3c16.941-0.002 30.66-13.719 30.66-30.661v-38.839c13.444-6.083 26.124-13.5 37.94-22.020l33.76 19.47c7.044 4.065 15.412 5.195 23.269 3.089s14.553-7.285 18.62-14.33l59.919-103.75c4.066-7.044 5.153-15.414 3.050-23.27-2.105-7.858-7.245-14.561-14.29-18.63l-33.55-19.37c0.722-7.249 1.1-14.593 1.1-22.020 0-7.444-0.375-14.806-1.1-22.070l33.55-19.32c7.045-4.068 12.185-10.772 14.29-18.631 2.102-7.855 1.016-16.226-3.050-23.269l-59.919-103.751c-4.067-7.045-10.763-12.223-18.62-14.33-5.894-1.579-12.083-1.337-17.78 0.59l-5.49 2.501-33.76 19.42c-11.809-8.513-24.504-15.892-37.94-21.97v-38.84c0-16.942-13.719-30.659-30.66-30.66h-119.841c-16.941 0.001-30.66 13.718-30.66 30.66v38.84c-13.448 6.084-26.171 13.447-37.99 21.97l-33.71-19.42c-7.044-4.066-15.413-5.194-23.269-3.090-5.894 1.581-11.162 4.862-15.131 9.38l-3.49 4.95-59.919 103.751c-4.067 7.044-5.144 15.413-3.040 23.269 2.105 7.859 7.234 14.562 14.28 18.631l33.5 19.32c-0.724 7.263-1.050 14.628-1.050 22.070 0 7.425 0.329 14.772 1.050 22.020l-33.5 19.37c-7.046 4.067-12.174 10.77-14.28 18.63-2.103 7.857-1.027 16.226 3.040 23.27l59.919 103.75c4.067 7.045 10.763 12.223 18.62 14.33 7.856 2.104 16.225 0.976 23.269-3.089l33.71-19.47c11.826 8.529 24.533 15.932 37.99 22.020v38.839c0 16.943 13.719 30.66 30.66 30.661h119.841zM482.74 627.92c-0.002-13.206-8.442-24.936-20.97-29.11-20.548-6.841-39.229-17.842-55.179-32-8.65-7.67-20.748-9.723-31.301-5.689l-4.4 2.090-25.31 14.58-29.21-50.68 25.060-14.43c11.43-6.599 17.367-19.768 14.729-32.7-2.106-10.317-3.24-21.022-3.24-32.009 0-10.989 1.134-21.693 3.24-32.010 2.638-12.931-3.299-26.102-14.729-32.7l-25.060-14.479 29.21-50.68 25.31 14.63c11.437 6.603 25.821 5.161 35.701-3.6 15.951-14.159 34.635-25.161 55.179-32 12.529-4.174 20.968-15.905 20.97-29.11v-29.060h58.52v29.060c0.002 13.208 8.44 24.937 20.97 29.11 20.545 6.839 39.228 17.841 55.179 32 9.88 8.76 24.265 10.202 35.701 3.6l25.26-14.63 29.21 50.68-25.010 14.479c-11.43 6.6-17.368 19.769-14.729 32.7 2.106 10.317 3.24 21.022 3.24 32.010s-1.134 21.692-3.24 32.009c-2.639 12.932 3.299 26.102 14.729 32.7l25.010 14.43-29.21 50.68-25.26-14.58c-10.009-5.778-22.283-5.41-31.811 0.65l-3.89 2.949c-15.95 14.158-34.632 25.159-55.179 32-12.531 4.173-20.968 15.904-20.97 29.11v29.060h-58.52v-29.060zM512 558.52c61.067 0 110.55-49.486 110.55-110.55s-49.483-110.55-110.55-110.55c-61.067 0-110.55 49.486-110.55 110.55s49.483 110.55 110.55 110.55zM512 497.2c-27.18 0-49.23-22.051-49.23-49.23s22.050-49.23 49.23-49.23c27.18 0 49.23 22.051 49.23 49.23s-22.050 49.23-49.23 49.23zM913.45 715.15c14.664 8.482 33.404 3.481 41.89-11.18l-53.080-30.711c-8.48 14.665-3.472 33.406 11.19 41.891z" />
<glyph unicode="&#xe906;" glyph-name="7" d="M512 277.333c-33.755 0-66.751 10.010-94.817 28.763s-49.94 45.407-62.858 76.592c-12.918 31.186-16.297 65.501-9.712 98.607s22.839 63.516 46.708 87.384c23.868 23.868 54.278 40.122 87.384 46.708s67.421 3.205 98.607-9.712c31.185-12.918 57.84-34.792 76.592-62.858 18.754-28.066 28.763-61.062 28.763-94.817 0-45.264-17.981-88.673-49.988-120.679s-75.416-49.988-120.679-49.988zM512 533.333c-16.878 0-33.375-5.004-47.409-14.381s-24.97-22.704-31.429-38.297-8.149-32.75-4.856-49.304c3.292-16.553 11.42-31.757 23.353-43.692 11.935-11.934 27.139-20.061 43.692-23.353 16.554-3.293 33.711-1.603 49.304 4.856s28.92 17.396 38.297 31.429c9.377 14.034 14.381 30.532 14.381 47.409 0 22.631-8.99 44.336-24.993 60.339-16.003 16.004-37.709 24.994-60.34 24.994zM768-21.333c0 67.895-26.971 133.009-74.98 181.019s-113.124 74.981-181.020 74.981c-67.895 0-133.010-26.972-181.020-74.981s-74.98-113.123-74.98-181.019c0-11.316 4.495-22.169 12.497-30.17s18.854-12.497 30.17-12.497c11.315 0 22.168 4.495 30.169 12.497s12.497 18.854 12.497 30.17c0 45.263 17.981 88.673 49.988 120.679s75.416 49.987 120.679 49.987c45.264 0 88.673-17.98 120.679-49.987s49.988-75.417 49.988-120.679c0-11.316 4.494-22.169 12.496-30.17 8.003-8.002 18.855-12.497 30.17-12.497 11.316 0 22.169 4.495 30.17 12.497s12.497 18.854 12.497 30.17zM768 618.667c-33.755 0-66.751 10.009-94.817 28.762s-49.94 45.407-62.858 76.593c-12.918 31.185-16.297 65.5-9.712 98.606s22.839 63.516 46.708 87.384c23.868 23.868 54.278 40.123 87.384 46.708s67.421 3.205 98.606-9.712c31.186-12.917 57.841-34.792 76.593-62.858 18.754-28.066 28.763-61.062 28.763-94.818 0-45.263-17.981-88.673-49.988-120.679s-75.416-49.987-120.679-49.987zM768 874.667c-16.878 0-33.375-5.005-47.409-14.381s-24.97-22.704-31.429-38.296c-6.458-15.593-8.149-32.751-4.856-49.304s11.42-31.758 23.353-43.692c11.935-11.935 27.139-20.061 43.692-23.354s33.711-1.603 49.304 4.856c15.592 6.459 28.92 17.397 38.297 31.43s14.381 30.531 14.381 47.408c0 22.632-8.99 44.337-24.993 60.34s-37.709 24.993-60.34 24.993zM1024 320c-0.068 67.875-27.061 132.95-75.055 180.945-47.995 47.994-113.070 74.988-180.945 75.055-11.316 0-22.169-4.495-30.17-12.497s-12.497-18.854-12.497-30.17c0-11.315 4.495-22.169 12.497-30.17s18.854-12.496 30.17-12.496c45.264 0 88.673-17.981 120.679-49.988s49.988-75.416 49.988-120.679c0-11.316 4.494-22.169 12.496-30.17 8.003-8.002 18.855-12.497 30.17-12.497 11.316 0 22.169 4.495 30.17 12.497s12.497 18.854 12.497 30.17zM256 618.667c-33.755 0-66.751 10.009-94.817 28.762s-49.94 45.407-62.858 76.593c-12.917 31.185-16.297 65.5-9.712 98.606s22.84 63.516 46.708 87.384c23.868 23.868 54.278 40.123 87.384 46.708s67.421 3.205 98.607-9.712c31.185-12.917 57.84-34.792 76.592-62.858 18.754-28.066 28.763-61.062 28.763-94.818 0-45.263-17.981-88.673-49.988-120.679s-75.416-49.987-120.679-49.987zM256 874.667c-16.878 0-33.375-5.005-47.409-14.381-14.033-9.376-24.97-22.704-31.429-38.296-6.458-15.593-8.149-32.751-4.856-49.304 3.292-16.553 11.42-31.758 23.353-43.692 11.935-11.935 27.139-20.061 43.692-23.354 16.554-3.292 33.711-1.603 49.304 4.856 15.592 6.459 28.92 17.397 38.297 31.43s14.381 30.531 14.381 47.408c0 22.632-8.99 44.337-24.993 60.34s-37.709 24.993-60.34 24.993zM85.333 320c0 45.264 17.981 88.673 49.987 120.679s75.416 49.988 120.679 49.988c11.316 0 22.169 4.494 30.17 12.496s12.497 18.855 12.497 30.17c0 11.316-4.495 22.169-12.497 30.17s-18.854 12.497-30.17 12.497c-67.875-0.068-132.95-27.061-180.944-75.055s-74.988-113.070-75.056-180.945c0-11.316 4.495-22.169 12.497-30.17s18.854-12.497 30.17-12.497c11.316 0 22.168 4.495 30.17 12.497s12.497 18.854 12.497 30.17z" />
<glyph unicode="&#xe907;" glyph-name="8" d="M653.080 960c16.941-0.003 30.661-13.719 30.661-30.66v-42.59c5.755-3.009 11.338-6.263 16.77-9.74l36.95 21.32c7.044 4.064 15.414 5.204 23.269 3.1 7.859-2.106 14.562-7.284 18.631-14.33l71.9-124.53c4.064-7.044 5.145-15.413 3.039-23.269s-7.236-14.553-14.28-18.62l-36.85-21.27c0.167-3.191 0.399-6.436 0.399-9.74 0-3.323-0.231-6.584-0.399-9.79l36.85-21.219c7.044-4.068 12.173-10.763 14.28-18.62 2.105-7.856 1.025-16.225-3.039-23.27l-0.17-0.3h89.6c9.442 0 18.346-4.339 24.159-11.779 5.814-7.447 7.892-17.156 5.6-26.321l-89.88-359.51c-3.416-13.655-15.685-23.219-29.761-23.219h-499.98l19.63-78.491h530.28l6.19-0.6c13.975-2.863 24.47-15.237 24.47-30.060-0.002-14.82-10.496-27.186-24.47-30.050l-6.19-0.6h-32.13c3.132-9.181 4.869-19.016 4.87-29.26 0-50.034-40.546-90.58-90.58-90.58s-90.58 40.546-90.58 90.58c0 10.243 1.727 20.080 4.86 29.26h-148.13c3.132-9.181 4.859-19.017 4.86-29.26 0-50.033-40.538-90.578-90.571-90.58-50.034 0-90.58 40.546-90.58 90.58 0.001 10.243 1.729 20.079 4.861 29.26h-31.12c-12.307 0-23.236 7.302-28.070 18.27l-1.691 4.94-34.959 139.81c-0.029 0.116-0.052 0.234-0.080 0.35l-143.92 575.62h-55.92c-16.942 0-30.658 13.708-30.66 30.65 0 16.943 13.717 30.66 30.66 30.66h79.89c14.077 0 26.345-9.563 29.759-23.22l54.11-216.45h65.651l-0.17 0.3c-4.067 7.046-5.156 15.412-3.050 23.27 2.106 7.857 7.236 14.552 14.28 18.62l36.801 21.219c-0.169 3.205-0.35 6.469-0.35 9.79 0 3.304 0.183 6.551 0.35 9.74l-36.801 21.27c-7.044 4.067-12.173 10.762-14.28 18.62-2.105 7.858-1.017 16.224 3.050 23.269l71.899 124.53c8.472 14.671 27.218 19.698 41.891 11.23l36.85-21.32c5.456 3.494 11.098 6.717 16.88 9.74v42.59c0 16.943 13.718 30.66 30.661 30.66h143.799zM463.34 55.84c-16.146 0-29.258-13.113-29.26-29.26 0-16.147 13.112-29.26 29.26-29.26 16.146 0.002 29.261 13.113 29.261 29.26-0.002 16.144-13.115 29.258-29.261 29.26zM782.9 55.84c-16.146 0-29.258-13.113-29.26-29.26 0-16.147 13.112-29.26 29.26-29.26s29.26 13.112 29.26 29.26c-0.002 16.145-13.113 29.26-29.26 29.26zM260.97 555.15l74.539-298.19h491.331l74.55 298.19h-85.711l-36.319-62.91c-7.414-12.841-22.712-18.296-36.251-13.78l-5.649 2.541-36.95 21.28c-5.432-3.475-11.015-6.732-16.77-9.74v-42.54c0-16.941-13.72-30.657-30.661-30.66h-143.799c-16.943 0-30.661 13.716-30.661 30.66v42.54c-5.782 3.022-11.425 6.247-16.88 9.74l-36.85-21.28c-7.043-4.064-15.415-5.194-23.27-3.090-5.893 1.58-11.162 4.873-15.13 9.39l-3.491 4.94-36.319 62.91h-85.71zM539.93 867.33c-0.004-12.483-7.555-23.715-19.119-28.41-13.874-5.621-26.848-13.192-38.601-22.37-9.853-7.688-23.376-8.649-34.2-2.4l-27.26 15.681-41.201-71.4 27.27-15.679c10.809-6.242 16.732-18.446 15.020-30.81-1.084-7.841-1.74-15.139-1.74-22.27 0-7.129 0.655-14.429 1.74-22.27 1.712-12.364-4.211-24.569-15.020-30.81l-27.27-15.73 11.211-19.441c0.26-0.437 0.53-0.868 0.77-1.32l29.22-50.64 27.26 15.73c10.825 6.249 24.347 5.289 34.2-2.399 11.752-9.18 24.727-16.751 38.601-22.37 11.564-4.695 19.115-15.927 19.119-28.41v-31.35h82.49v31.35c0.005 12.484 7.553 23.715 19.12 28.41 13.866 5.618 26.802 13.197 38.55 22.37 9.854 7.694 23.423 8.649 34.251 2.399l27.22-15.73 41.189 71.4-27.21 15.73c-10.81 6.241-16.792 18.445-15.080 30.81 1.085 7.843 1.8 15.137 1.8 22.27 0 7.13-0.715 14.427-1.8 22.27-1.711 12.365 4.27 24.569 15.080 30.81l27.21 15.679-41.189 71.4-27.22-15.681c-9.466-5.463-21.015-5.435-30.35-0.2l-3.9 2.6c-11.746 9.174-24.682 16.753-38.55 22.37-11.567 4.694-19.115 15.926-19.12 28.41v31.35h-82.49v-31.35zM581.18 792.23c56.65-0.002 102.56-45.909 102.56-102.56s-45.91-102.558-102.56-102.56c-56.653 0-102.561 45.907-102.561 102.56s45.908 102.56 102.561 102.56zM581.18 730.91c-22.767 0-41.25-18.473-41.251-41.24s18.484-41.241 41.251-41.241c22.765 0.003 41.24 18.475 41.24 41.241 0 22.765-18.476 41.238-41.24 41.24z" />
<glyph unicode="&#xe908;" glyph-name="9" d="M784.961 960c36.238 0 70.995-14.395 96.62-40.020s40.020-60.381 40.020-96.621v-750.719c0-36.239-14.394-70.996-40.020-96.621s-60.381-40.020-96.62-40.020h-545.92c-36.239 0-70.995 14.395-96.621 40.020s-40.020 60.381-40.020 96.621v618.559c-0.039 25.042 5.451 49.782 16.071 72.46s26.109 42.736 45.369 58.74l117.76 97.92c30.641 25.534 69.236 39.568 109.121 39.68h394.24zM390.721 891.84c-23.409-0.369-45.989-8.724-64-23.68l-119.361-98.24c-11.548-9.605-20.829-21.643-27.19-35.25s-9.645-28.449-9.609-43.47v-618.559c0.084-18.052 7.296-35.336 20.060-48.1s30.048-19.976 48.099-20.060h546.241c18.051 0.084 35.335 7.296 48.099 20.060s19.976 30.048 20.060 48.1v750.719c-0.084 18.052-7.296 35.336-20.060 48.101s-30.048 19.976-48.099 20.060l-394.24 0.32zM716.8 208.959c4.751 0.462 9.55-0.068 14.080-1.57 4.532-1.502 8.705-3.941 12.24-7.15s6.367-7.124 8.301-11.49 2.93-9.095 2.93-13.87c-0.001-4.773-0.997-9.496-2.93-13.86-1.933-4.366-4.765-8.28-8.301-11.49-3.535-3.208-7.708-5.647-12.24-7.15-4.53-1.501-9.329-2.041-14.080-1.58h-409.6c-4.751-0.461-9.549 0.078-14.080 1.58s-8.704 3.94-12.24 7.15c-3.535 3.209-6.357 7.125-8.29 11.49s-2.929 9.087-2.93 13.86c0 4.776 0.996 9.504 2.93 13.87 1.933 4.365 4.755 8.281 8.29 11.49s7.708 5.647 12.24 7.15 9.329 2.031 14.080 1.57h409.6zM716.8 379.51c4.751 0.461 9.55-0.069 14.080-1.57 4.532-1.502 8.705-3.941 12.24-7.15 3.536-3.21 6.367-7.124 8.301-11.49s2.93-9.095 2.93-13.87c-0.001-4.774-0.997-9.496-2.93-13.86-1.933-4.366-4.765-8.281-8.301-11.49-3.535-3.208-7.708-5.647-12.24-7.15-4.53-1.502-9.329-2.041-14.080-1.58h-409.6c-8.466 0.821-16.322 4.772-22.040 11.069-5.718 6.3-8.889 14.504-8.89 23.010 0 8.508 3.171 16.72 8.89 23.020 5.717 6.298 13.573 10.238 22.040 11.060h409.6zM648.48 758.5c4.774-0.001 9.496-0.997 13.861-2.931s8.28-4.764 11.489-8.3c3.208-3.535 5.647-7.699 7.151-12.231 1.502-4.532 2.041-9.337 1.58-14.089v-204.8c-0.085-8.969-3.688-17.548-10.030-23.89-6.343-6.343-14.921-9.946-23.89-10.030-9.080 0-17.789 3.611-24.21 10.030-6.42 6.42-10.029 15.13-10.030 24.209v204.481c-0.461 4.752 0.078 9.557 1.58 14.089 1.502 4.53 3.933 8.697 7.14 12.231 3.209 3.535 7.124 6.366 11.49 8.3s9.094 2.931 13.869 2.931zM375.2 656.42c4.776 0 9.504-0.996 13.87-2.93s8.282-4.755 11.49-8.29c3.209-3.536 5.637-7.708 7.14-12.24s2.041-9.328 1.58-14.080v-102.4c0-9.026-3.559-17.688-9.91-24.1s-14.984-10.056-24.010-10.14c-9.081 0-17.79 3.609-24.21 10.029-6.419 6.422-10.030 15.131-10.030 24.21v102.4c-0.461 4.751 0.078 9.549 1.58 14.080s3.94 8.704 7.151 12.24c3.209 3.535 7.124 6.357 11.489 8.29s9.086 2.93 13.86 2.93zM511.84 683.74c8.508 0 16.72-3.171 23.020-8.89 6.299-5.718 10.239-13.582 11.060-22.050v-136.641c-0.084-8.967-3.678-17.547-10.020-23.89-6.344-6.343-14.93-9.946-23.9-10.029-9.080 0-17.789 3.61-24.209 10.029-6.42 6.42-10.029 15.131-10.030 24.21v136.32c0.821 8.468 4.77 16.332 11.069 22.050s14.503 8.889 23.010 8.89z" />
<glyph unicode="&#xe909;" glyph-name="10" d="M720.593 151.040l303.407 296.96-303.407 296.96v-258.759h-720.593v-76.403h720.593v-258.759z" />
<glyph unicode="&#xe90a;" glyph-name="11" d="M432.66-64c-38.481 0.001-71.341 27.79-77.67 65.705l-9.088 54.621-1.607 6.971c-9.78 34.095-46.951 53.52-81.135 40.728l-51.864-19.411-6.778-2.207c-34.222-9.409-70.973 5.298-89.017 36.514l-84.448 146.158-3.314 6.319c-13.913 30.024-7.448 65.68 16.117 88.928l5.322 4.765 42.776 35.21c30.057 24.718 30.056 70.68 0 95.398l-42.776 35.21-5.322 4.765c-23.565 23.248-30.029 58.905-16.117 88.928l3.314 6.319 84.448 146.158c18.043 31.217 54.794 45.922 89.017 36.514l6.778-2.207 51.864-19.411c34.183-12.793 71.354 6.633 81.135 40.728l1.607 6.971 9.088 54.621c6.328 37.919 39.193 65.705 77.67 65.705h168.947c36.072-0.008 67.207-24.433 76.164-58.733l1.456-6.972 9.137-54.621c6.007-35.949 41.381-58.37 75.813-49.805l6.878 2.106 51.915 19.411c33.784 12.635 71.494 0.686 91.929-28.289l3.867-6.018 84.448-146.158c19.23-33.282 11.564-75.574-18.125-100.012l-42.777-35.21-5.322-4.865c-23.001-23.807-23.001-61.861 0-85.668l5.322-4.865 42.777-35.21c29.689-24.438 37.356-66.73 18.125-100.012l-84.448-146.158-3.867-6.018c-20.435-28.974-58.146-40.924-91.929-28.289l-51.915 19.411-6.878 2.106c-34.433 8.566-69.807-13.856-75.813-49.805l-9.137-54.621-1.456-6.971c-8.957-34.298-40.090-58.726-76.164-58.734h-168.947zM602.612 13.442l0.552 0.953 9.137 54.57c13.93 83.502 98.4 134.609 178.135 109.843l7.682-2.658 51.864-19.411c0.361-0.135 0.762-0.118 1.105 0l0.853 0.702 84.498 146.157c0.386 0.68 0.202 1.562-0.401 2.056l-42.777 35.16-6.125 5.367c-59.338 54.781-59.353 148.916 0 203.687l6.125 5.317 42.777 35.16c0.602 0.495 0.786 1.376 0.401 2.056l-84.498 146.157-0.853 0.702c-0.343 0.118-0.743 0.135-1.105 0l-51.864-19.411-7.682-2.658c-79.735-24.765-164.205 26.341-178.135 109.843l-9.137 54.57-0.552 0.953c-0.278 0.235-0.618 0.397-1.005 0.401h-168.947c-0.784-0.001-1.479-0.584-1.607-1.354l-9.088-54.57-1.556-7.975c-18.396-81.366-104.911-128.899-184.26-99.21l-51.914 19.411h-1.105c-0.343-0.126-0.658-0.365-0.854-0.702l-84.448-146.157-0.201-1.104 0.552-0.952 42.776-35.16c67.53-55.537 67.53-158.834 0-214.37l-42.776-35.16-0.552-0.952 0.201-1.104 84.448-146.157c0.196-0.338 0.51-0.577 0.854-0.702h1.105l51.914 19.411c79.35 29.689 165.864-17.843 184.26-99.21l1.556-7.975 9.088-54.57c0.129-0.773 0.824-1.354 1.607-1.355h168.947c0.385 0.004 0.726 0.166 1.005 0.401zM397.716 448c0-65.884 53.444-119.313 119.392-119.323 65.957 0 119.442 53.433 119.442 119.323 0 65.891-53.486 119.323-119.442 119.323-65.949-0.009-119.392-53.436-119.392-119.323zM320.598 448c0 108.435 87.972 196.354 196.511 196.363 108.547 0 196.561-87.923 196.561-196.363s-88.014-196.363-196.561-196.363c-108.539 0.009-196.511 87.93-196.511 196.363z" />
<glyph unicode="&#xe90b;" glyph-name="12" d="M359.046 957.533c19.402 6.49 39.878-0.1 52.060-16.55 12.53-16.902 12.741-39.845 0.56-57.060-108.188-153.206-90.386-360.772 42.34-493.5 132.728-132.797 340.263-150.53 493.4-42.481 17.458 12.319 39.669 12.174 56.639-0.39 16.764-12.46 23.292-33.489 16.59-53.549-25.857-77.644-68.374-146.473-126.439-204.541-99.234-99.234-230.267-153.449-370.18-153.449-4.303 0-8.572 0.066-12.91 0.17-144.669 3.402-278.058 64.424-375.661 171.78-173.75 191.143-181.213 485.228-17.32 684.11 63.657 77.297 146.962 134.465 240.92 165.46zM361.956 903.393c-79.101-28.739-149.316-78.483-203.6-144.43-147.547-179.065-140.848-443.892 15.62-615.98 87.918-96.733 208.114-151.685 338.41-154.81 129.846-3.297 252.891 45.962 345.009 138.080 49.252 49.252 86.117 107.075 109.65 171.98-172.816-114.747-402.142-92.357-549.83 55.331-147.721 147.722-170.077 377.013-55.26 549.83zM730.086 849.553c15.307 0 28.435-10.035 32.6-24.96 16.868-60.568 64.937-108.611 125.47-125.41 14.924-4.165 24.995-17.244 25.031-32.55 0.035-15.341-10.001-28.46-24.96-32.66-0.035-0.034-0.036-0.040-0.071-0.040-60.498-16.868-108.571-64.941-125.44-125.44-4.2-14.992-17.324-25.019-32.63-25.019h-0.070c-15.34 0.037-28.42 10.102-32.55 25.059-16.8 60.498-64.843 108.567-125.341 125.4-14.924 4.166-24.985 17.254-25.019 32.631 0.001 15.375 10.066 28.49 25.059 32.62 60.497 16.765 108.535 64.804 125.301 125.3 4.165 14.959 17.245 25.034 32.55 25.071h0.070zM730.126 766.104c-22.109-42.518-57.032-77.431-99.55-99.54 42.484-22.145 77.441-57.097 99.55-99.651 22.145 42.518 57.097 77.507 99.651 99.651-42.518 22.109-77.506 57.022-99.651 99.54z" />
<glyph unicode="&#xe90c;" glyph-name="13" d="M775.070 960c81.349 0 147.3-64.656 147.3-144.41v-52.511c0-21.752-17.986-39.389-40.17-39.389-22.187 0-40.169 17.637-40.169 39.389v52.511c0 36.252-29.984 65.64-66.96 65.64h-535.62c-36.977-0.002-66.95-29.39-66.95-65.64v-735.171c0.001-36.249 29.974-65.638 66.95-65.639h535.62c36.976 0 66.959 29.39 66.96 65.639v52.52c0.002 21.748 17.983 39.38 40.169 39.38 22.184 0 40.168-17.632 40.17-39.38v-52.52c-0.001-79.752-65.952-144.399-147.3-144.399h-535.62c-81.349 0.001-147.289 64.648-147.29 144.399v735.171c0 79.752 65.94 144.408 147.29 144.41h535.62zM693.11 633.4c15.688 15.378 41.123 15.378 56.81 0l160.69-157.54c15.686-15.38 15.687-40.32 0-55.7l-160.69-157.529c-15.689-15.38-41.122-15.38-56.81 0s-15.688 40.319 0 55.699l92.11 90.3h-277.949c-22.184 0-40.178 17.629-40.18 39.38 0 21.75 17.995 39.39 40.18 39.39h277.949l-92.11 90.299c-15.688 15.38-15.688 40.32 0 55.7z" />
<glyph unicode="&#xe90d;" glyph-name="14" d="M484.524 932.524v-96.905c0-15.16 12.317-27.476 27.476-27.476s27.477 12.316 27.477 27.476v96.905c0 15.16-12.317 27.476-27.477 27.476s-27.476-12.316-27.476-27.476zM484.524 60.381v-96.905c0-15.159 12.317-27.476 27.476-27.476s27.477 12.317 27.477 27.476v96.905c0 15.16-12.317 27.476-27.477 27.476s-27.476-12.316-27.476-27.476zM996.524 420.524l5.561 0.603c12.493 2.571 21.915 13.619 21.915 26.873s-9.422 24.302-21.915 26.873l-5.561 0.603h-96.905c-15.16 0-27.476-12.316-27.476-27.476s12.316-27.476 27.476-27.476h96.905zM124.381 420.524l5.562 0.603c12.492 2.571 21.914 13.619 21.914 26.873s-9.422 24.302-21.914 26.873l-5.562 0.603h-96.905c-15.16 0-27.476-12.316-27.476-27.476s12.316-27.476 27.476-27.476h96.905zM874.021 771.216c10.707 10.721 10.715 28.087 0 38.802s-28.082 10.707-38.802 0l38.802-38.802zM766.662 702.66c9.376-9.376 23.859-10.509 34.513-3.485l4.356 3.485 68.49 68.557-19.436 19.368-19.367 19.434-68.557-68.49-3.486-4.356c-7.025-10.653-5.89-25.137 3.486-34.513zM257.318 154.518c10.707 10.72 10.716 28.086 0 38.801-10.715 10.716-28.081 10.708-38.802 0l38.802-38.801zM149.959 85.961c9.376-9.376 23.86-10.51 34.513-3.486l4.356 3.486 68.49 68.557-19.434 19.367-19.368 19.434-68.557-68.489-3.485-4.356c-7.025-10.654-5.891-25.138 3.485-34.513zM805.531 193.319c-10.72 10.72-28.15 10.72-38.869 0-10.702-10.712-10.694-28.083 0-38.801l38.869 38.801zM839.507 82.475c10.651-7.032 25.133-5.885 34.514 3.486 10.719 10.719 10.719 28.149 0 38.869l-68.49 68.489-19.434-19.434-19.434-19.367 68.557-68.557 4.289-3.486zM188.828 810.019c-10.719 10.72-28.149 10.72-38.869 0-10.702-10.713-10.693-28.084 0-38.802l38.869 38.802zM222.805 699.175c10.651-7.033 25.133-5.886 34.513 3.485 10.72 10.72 10.72 28.15 0 38.869l-68.49 68.49-19.434-19.434-19.434-19.368 68.557-68.557 4.29-3.485zM710.633 448c-0.001-109.636-88.999-198.634-198.634-198.634s-198.634 88.999-198.634 198.634c0 109.636 88.999 198.634 198.634 198.634s198.634-88.999 198.634-198.634zM765.586 448c0 139.956-113.632 253.587-253.587 253.587-139.956 0-253.587-113.631-253.587-253.587s113.631-253.587 253.587-253.587c139.955 0 253.586 113.632 253.587 253.587z" />
<glyph unicode="&#xe90e;" glyph-name="15" d="M512 960c283.006 0 512-229.032 512-512 0-283.006-229.032-512-512-512-283.006 0-512 229.032-512 512 0 283.006 229.032 512 512 512zM512 880c-238.786 0-432-193.246-432-432 0-238.786 193.246-432 432-432 238.786 0 432 193.246 432 432 0 238.786-193.246 432-432 432zM512 253c27.614 0 50-22.386 50-50s-22.386-50-50-50c-27.614 0-50 22.386-50 50s22.386 50 50 50zM512 703c88.224 0 160-71.775 160-160 0-74.417-51.068-137.133-120.001-154.939v-65.060c0-22.093-17.908-40.001-39.999-40.001s-39.999 17.908-39.999 40.001v100c0 22.092 17.908 39.999 39.999 39.999 44.112 0 80 35.888 80 80s-35.888 80-80 80-80-35.887-80-80c0-22.092-17.908-39.999-40.001-39.999s-39.999 17.908-39.999 39.999c0 88.225 71.776 160 160 160z" />
<glyph unicode="&#xe90f;" glyph-name="16" d="M884.36 867.84c76.491 0 138.948-62.052 139.619-138.39 0.008-0.307 0.008-0.613 0.010-0.921 0-0.106 0.010-0.213 0.010-0.319v-558.55c-0.001-76.906-62.734-139.641-139.64-139.641h-744.72c-76.906 0-139.639 62.734-139.64 139.641v558.55c0.002 76.904 62.735 139.63 139.64 139.63h744.72zM538.7 364.26c-16.027-11.219-37.364-11.219-53.389 0l-392.22 274.55v-469.15c0.001-25.494 21.056-46.541 46.55-46.541h744.72c25.494 0 46.549 21.047 46.55 46.541v469.15l-392.21-274.55zM139.64 774.75c-18.055 0-33.881-10.562-41.58-25.78l413.94-289.769 413.93 289.759c-7.698 15.222-23.513 25.79-41.57 25.79h-744.72z" />
<glyph unicode="&#xe910;" glyph-name="17" d="M557 52.3c12.901 22.238 41.391 29.811 63.63 16.91 22.238-12.901 29.81-41.391 16.91-63.63-12.277-21.162-29.901-38.728-51.101-50.94-21.201-12.211-45.243-18.64-69.71-18.64-24.465 0-48.5 6.43-69.7 18.64-21.201 12.211-38.824 29.777-51.101 50.94-12.9 22.24-5.329 50.729 16.91 63.63 22.238 12.896 50.72 5.326 63.62-16.91 4.092-7.054 9.973-12.91 17.040-16.98 7.066-4.069 15.075-6.22 23.229-6.22 8.156 0 16.173 2.149 23.241 6.22 7.065 4.070 12.938 9.927 17.029 16.98zM516.74 960c86.425-0.001 169.308-34.338 230.419-95.45s95.45-143.995 95.45-230.42c0-156.077 33.377-253.001 64.14-309.401 15.446-28.318 30.493-46.892 40.941-57.919 5.235-5.526 9.342-9.196 11.82-11.26 1.236-1.031 2.070-1.662 2.43-1.93 0.055-0.042 0.106-0.077 0.139-0.1 16.687-11.464 24.071-32.435 18.19-51.859-5.945-19.634-24.046-33.061-44.56-33.061h-837.95c-20.514 0-38.615 13.427-44.56 33.061-5.882 19.425 1.511 40.396 18.2 51.859 0.032 0.024 0.075 0.059 0.13 0.1 0.359 0.267 1.192 0.898 2.43 1.93 2.477 2.064 6.594 5.732 11.83 11.26 10.448 11.028 25.486 29.605 40.93 57.919 30.764 56.4 64.151 153.324 64.151 309.401 0 86.425 34.329 169.307 95.44 230.42 61.112 61.113 144.003 95.45 230.43 95.45zM516.74 866.89c-61.732 0-120.938-24.52-164.59-68.17-43.652-43.652-68.18-102.858-68.18-164.59 0-169.793-36.445-282.36-75.511-353.98-3.541-6.493-7.098-12.637-10.639-18.44h637.839c-3.541 5.804-7.108 11.946-10.65 18.44-39.066 71.622-75.51 184.189-75.51 353.98-0.001 61.732-24.52 120.938-68.171 164.59s-102.858 68.169-164.59 68.17z" />
<glyph unicode="&#xe911;" glyph-name="18" d="M512 826.88c166.375 0 294.204-95.010 377.788-184.166 42.169-44.983 74.379-89.795 96.041-123.334 10.854-16.807 19.125-30.919 24.75-40.917 2.81-4.996 4.974-8.987 6.457-11.791 0.74-1.399 1.343-2.501 1.75-3.291 0.202-0.391 0.34-0.724 0.459-0.958 0.059-0.117 0.128-0.216 0.167-0.292l0.041-0.084 0.042-0.041c-0.054-0.046-1.552-0.818-38.167-19.125 36.614-18.307 38.112-19.079 38.167-19.125l-0.042-0.041-0.041-0.084c-0.039-0.076-0.108-0.175-0.167-0.292-0.119-0.234-0.257-0.567-0.459-0.958-0.407-0.791-1.010-1.892-1.75-3.291-1.484-2.805-3.647-6.795-6.457-11.791-5.625-9.998-13.896-24.11-24.75-40.917-21.662-33.539-53.872-78.35-96.041-123.334-83.584-89.157-211.413-184.166-377.788-184.166-166.376 0.002-294.205 95.011-377.789 184.166-42.169 44.983-74.379 89.795-96.041 123.334-10.854 16.807-19.126 30.919-24.75 40.917-2.811 4.996-4.974 8.988-6.458 11.791-0.74 1.399-1.343 2.501-1.75 3.291-0.201 0.391-0.34 0.725-0.458 0.958-0.059 0.117-0.128 0.216-0.167 0.292l-0.042 0.084-0.042 0.041c-0.002 0.018 0.442 0.263 38.166 19.125-37.725 18.862-38.169 19.107-38.166 19.125l0.042 0.041 0.042 0.084c0.038 0.076 0.107 0.175 0.167 0.292 0.119 0.233 0.257 0.567 0.458 0.958 0.407 0.791 1.010 1.892 1.75 3.291 1.484 2.804 3.648 6.795 6.458 11.791 5.624 9.998 13.895 24.11 24.75 40.917 21.661 33.539 53.871 78.35 96.041 123.334 83.584 89.156 211.413 184.164 377.789 184.166zM512 741.547c-132.281-0.002-239.127-75.661-315.539-157.167-37.817-40.339-66.955-80.878-86.624-111.333-7.648-11.843-13.799-22.115-18.458-30.167 4.659-8.052 10.811-18.324 18.458-30.167 19.669-30.456 48.807-70.994 86.624-111.333 76.413-81.505 183.258-157.165 315.539-157.167 132.281 0 239.124 75.661 315.538 157.167 37.817 40.339 66.954 80.877 86.624 111.333 7.642 11.833 13.758 22.118 18.417 30.167-4.658 8.049-10.775 18.334-18.417 30.167-19.67 30.457-48.807 70.994-86.624 111.333-76.414 81.505-183.257 157.167-315.538 157.167zM512 613.547c94.255 0 170.665-76.411 170.665-170.667s-76.41-170.667-170.665-170.667c-94.254 0.003-170.666 76.412-170.666 170.667s76.412 170.664 170.666 170.667zM512 528.213c-47.127-0.002-85.333-38.206-85.333-85.333s38.206-85.331 85.333-85.333c47.128 0 85.332 38.204 85.332 85.333s-38.204 85.333-85.332 85.333zM42.67 442.88l-38.166-19.083c-6.005 12.010-6.005 26.156 0 38.167l38.166-19.083zM1019.495 461.963c6.010-12.012 6.010-26.155 0-38.167l-38.167 19.083 38.167 19.083z" />
<glyph unicode="&#xe912;" glyph-name="19" d="M512 192l-512 512h1024l-512-512z" />
<glyph unicode="&#xe913;" glyph-name="20" d="M282.51 393.6c38.318 0 69.49-31.172 69.49-69.49v-213.021c0-38.318-31.172-69.49-69.49-69.49h-213.020c-38.318 0-69.49 31.172-69.49 69.49v213.021c0 38.318 31.172 69.49 69.49 69.49h213.020zM816 177.601c17.672 0 32-14.329 32-32s-14.328-32-32-32h-336c-17.672 0-32 14.328-32 32s14.328 32 32 32h336zM992 305.601c17.672 0 32-14.329 32-32s-14.328-32-32-32h-512c-17.672 0-32 14.328-32 32s14.328 32 32 32h512zM282.51 857.6c38.318 0 69.49-31.172 69.49-69.49v-213.021c0-38.318-31.172-69.49-69.49-69.49h-213.020c-38.318 0-69.49 31.172-69.49 69.49v213.021c0 38.318 31.172 69.49 69.49 69.49h213.020zM816 641.599c17.672 0 32-14.328 32-32 0-17.671-14.328-32-32-32h-336c-17.672 0-32 14.329-32 32 0 17.672 14.328 32 32 32h336zM992 761.6c17.672 0 32-14.328 32-32s-14.328-32-32-32h-512c-17.672 0-32 14.328-32 32s14.328 32 32 32h512z" />
<glyph unicode="&#xe914;" glyph-name="21" d="M16.662 718.592c22.216 21.504 58.237 21.504 80.453 0l414.885-401.57 414.885 401.57c22.217 21.504 58.236 21.504 80.453 0 22.213-21.503 22.213-56.367 0-77.871l-495.337-479.441-495.338 479.441c-22.216 21.504-22.216 56.368 0 77.871z" />
<glyph unicode="&#xe915;" glyph-name="22" d="M559.616 789.333c0-11.315 4.477-22.168 12.447-30.169s18.778-12.497 30.049-12.497h168.539c-3.128 27.704-15.238 53.608-34.465 73.728l-97.061 100.65c-21.233 21.609-49.401 34.971-79.51 37.717v-169.43zM474.624 789.333v170.667h-169.984c-56.332-0.068-110.338-22.566-150.172-62.559-39.833-39.993-62.241-94.216-62.308-150.774v-426.667c0.067-56.559 22.476-110.781 62.308-150.775 39.834-39.993 93.839-62.491 150.172-62.558h254.976c56.332 0.068 110.338 22.565 150.172 62.558 39.833 39.993 62.241 94.216 62.308 150.775v341.333h-169.984c-33.811 0-66.239 13.486-90.148 37.491s-37.34 56.562-37.34 90.509zM729.6-64h-382.464c-11.271 0-22.079 4.495-30.049 12.497s-12.447 18.854-12.447 30.17c0 11.315 4.477 22.169 12.447 30.17s18.778 12.496 30.049 12.496h382.464c33.811 0 66.238 13.486 90.148 37.491 23.908 24.005 37.34 56.562 37.34 90.509v469.334c0 11.315 4.477 22.168 12.447 30.169s18.778 12.497 30.049 12.497c11.27 0 22.079-4.495 30.049-12.497s12.447-18.854 12.447-30.169v-469.334c-0.068-56.559-22.476-110.781-62.308-150.774-39.834-39.993-93.839-62.492-150.172-62.559z" />
<glyph unicode="&#xe916;" glyph-name="23" d="M941.102 533.333h-296.452c-70.288 0-127.488 57.43-127.488 128v297.643c-6.841 0.469-13.683 1.024-20.61 1.024h-191.87c-117.204 0-212.522-95.701-212.522-213.333v-597.334c0-117.632 95.319-213.333 212.48-213.333h424.96c117.161 0 212.48 95.701 212.48 213.333v363.307c0 6.955-0.553 13.824-1.020 20.693h0.042zM378.923 151.808c-14.237-26.795-42.624-45.141-75.303-45.141-45.896 0-83.122 37.376-83.122 83.456l-0.34 87.68c0 46.080 37.226 83.456 83.122 83.456 32.637 0 61.066-18.304 75.303-45.142 9.391-17.706-3.4-39.082-23.373-39.082-9.647 0-18.656 5.162-23.161 13.738-5.27 10.070-16.105 17.152-28.259 17.366-16.956-0.299-30.64-14.123-30.597-31.232 0-4.054 0.34-80 0.34-85.888-0.043-17.11 13.641-30.934 30.597-31.232 12.196 0.213 22.99 7.296 28.259 17.365 4.505 8.576 13.515 13.739 23.161 13.739 19.973 0 32.764-21.376 23.373-39.083zM610.398 172.501c-6.756-38.144-43.048-65.834-86.224-65.834-34.932 0-67.739 14.122-90.007 38.784-9.817 10.837-9.009 27.605 1.785 37.418 10.794 9.856 27.495 9.046 37.27-1.792 12.111-13.397 31.106-21.376 50.867-21.376 18.953 0 32.254 11.264 34.209 22.144 2.593 14.635-19.080 23.851-25.795 26.368-31.787 11.776-60.429 24.619-60.429 24.619-25.328 16.213-36.505 41.088-32.85 66.987 3.953 27.562 24.011 50.005 52.355 58.581 55.67 16.853 101.735-21.163 103.605-22.784l0.128-0.085c11.091-9.387 12.536-26.027 3.187-37.163l-0.212-0.213c-9.349-11.136-25.881-12.587-36.972-3.2-1.063 0.853-26.73 20.992-54.523 12.714-12.366-3.754-14.831-11.989-15.299-15.317-0.34-2.517-0.552-8.704 5.482-12.843 0.68 0 25.965-11.178 53.757-21.504 51.675-19.157 64.637-56.661 59.494-85.418l0.17-0.086zM764.957 133.163c-3.188-15.446-16.743-26.496-32.467-26.496-15.214 0-28.472 10.368-32.17 25.173l-49.507 197.376c-4.080 16.256 8.159 32.043 24.861 32.043 11.771 0 22.012-8.022 24.86-19.456l30.002-119.766 24.648 118.742c2.465 11.946 12.961 20.48 25.115 20.48h0.51c16.276 0 28.43-15.019 25.116-31.019l-40.966-197.077zM602.112 661.333v279.040c38.798-14.763 74.495-37.504 104.752-67.84l148.057-148.736c30.257-30.336 52.907-66.176 67.611-105.13h-277.924c-23.458 0-42.496 19.157-42.496 42.666z" />
<glyph unicode="&#xe917;" glyph-name="24" d="M990.995 841.846h-360.841v-117.523h119.375v-79.99h-119.375v-78.178h118.153v-78.769h-118.153v-78.77h118.153v-78.769h-118.153v-78.769h118.153v-78.769h-118.153v-118.153h360.841c18.157 0 33.005 15.399 33.005 34.264v719.163c0 18.865-14.848 34.264-33.005 34.264zM945.231 172.307h-157.538v78.769h157.538v-78.769zM945.231 329.846h-157.538v78.769h157.538v-78.769zM945.231 487.385h-157.538v78.769h157.538v-78.769zM945.231 644.923h-157.538v78.769h157.538v-78.769zM0 846.218v-796.475l590.769-113.743v1024l-590.769-113.782zM373.681 247.926l-68.726 129.93c-2.6 4.845-5.278 13.745-8.074 26.703h-1.063c-1.3-6.105-4.372-15.4-9.216-27.845l-68.963-128.788h-107.086l127.133 199.444-116.303 199.482h109.332l57.029-119.61c4.45-9.453 8.429-20.678 11.973-33.635h1.103c2.246 7.799 6.419 19.378 12.525 34.777l63.409 118.509h100.115l-119.61-197.79 122.959-201.137-106.536-0.040z" />
<glyph unicode="&#xe918;" glyph-name="25" d="M251.99 960c-66.254 0-118.87-51.784-118.87-115.143v-793.715c0-63.359 52.616-115.143 118.87-115.143h519.805c66.254 0 119.085 51.784 119.085 115.143v591.928l-285.502 46.643c-60.18 9.775-100.044 68.562-85.071 126.929l36.807 143.357h-305.123zM593.204 941.857l-34.658-135.071c-9.294-36.229 14.838-72.245 53.347-78.5l240.175-38.929-258.864 252.5zM512.859 556.572c17.511-0.122 35.567-8.053 47.405-26.714 16.503-22.032 17.748-50.679 11.673-79.714-5.443-26.008-18.114-54.357-32.654-83.144 24.787-41.301 53.215-83.692 74.33-115.786 17.864 2.577 35.475 4.351 52.131 5.072 32.594 1.411 61.873-0.719 85.358-13.357 30.249-15.766 43.166-50.69 31.436-82.215-6.721-17.352-21.463-28.596-37.237-34.286-15.773-5.688-33.424-6.287-50.126-1.143-36.021 11.097-66.268 46.233-95.311 82.143l-193.558-44.929c-23.875-49.507-45.437-92.332-78.554-112.5-8.642-5.262-19.44-8.855-32.081-9-13.46 0.207-28.922 5.050-39.958 14.714-25.368 23.568-23.719 64.122 0 90.786 28.329 31.805 75.482 37.534 124.742 49.214 37.942 49.812 81.466 112.271 113.070 169.643-1.833 3.252-3.822 5.398-5.585 8.643-15.717 28.918-28.572 57.468-34.588 84.286s-5.244 54.529 12.747 74.714c7.758 8.704 23.785 23.244 46.76 23.571zM512.357 517.072c-0.232-0.003-0.478-0.058-0.716-0.072-7.242-0.416-12.316-4.073-16.041-10.143-5.302-7.757-8.495-19.222-3.867-39.857 3.449-15.376 13.486-35.543 23.058-55.214 6.672 15.934 15.958 33.44 18.69 46.5 4.917 23.502 2.457 39.328-4.726 48.571-4.309 5.544-9.164 10.308-16.399 10.214zM516.797 328.928c-21.554-36.561-48.922-76.898-75.045-116.429l129.467 31.429c-16.129 24.899-35.871 55.518-54.423 85zM675.482 217.357c-2.699-0.056-5.343-0.172-7.948-0.287-5.416-0.233-12.385-1.226-18.117-2.642 20.724-21.434 43.375-47.386 57.43-51.715 10.351-3.728 33.864-0.359 38.74 12.214 5.186 13.645 0.851 25.765-13.391 33.428-17.014 7.977-37.817 9.395-56.714 9.001zM345.224 141.215c-31.455-5.183-48.104-9.781-59.722-20.929-11.399-12.815-10.089-28.551-2.864-35.5 5.228-5.299 15.501-7.547 24.418-1.43 9.018 5.493 24.461 35.632 38.168 57.858z" />
<glyph unicode="&#xe919;" glyph-name="26" d="M845.652 762v48c0 82.71-67.422 150-150.294 150h-368.721c-82.871 0-150.294-67.29-150.294-150v-48h669.308zM236.462 322v-326c0-33.137 26.915-60 60.117-60h428.838c33.203 0 60.117 26.864 60.117 60v326h-549.072zM591.154 66h-160.312c-16.601 0-30.060 13.432-30.060 30s13.458 30 30.060 30h160.312c16.601 0 30.060-13.432 30.060-30s-13.458-30-30.060-30zM591.154 194h-160.312c-16.601 0-30.060 13.432-30.060 30s13.458 30 30.060 30h160.312c16.601 0 30.060-13.432 30.060-30s-13.458-30-30.060-30zM873.706 702h-723.413c-82.872 0-150.294-67.29-150.294-150.001v-239.999c0-82.711 67.422-150.001 150.294-150.001h26.051v160h-18.035c-16.601 0-30.058 13.432-30.058 30s13.457 30 30.058 30h705.377c16.601 0 30.058-13.432 30.058-30s-13.457-30-30.058-30h-18.035v-160h28.055c82.872 0 150.294 67.29 150.294 150.001v239.999c0 82.711-67.421 150.001-150.294 150.001zM254.497 514h-96.187c-16.601 0-30.058 13.432-30.058 30s13.457 30 30.058 30h96.187c16.601 0 30.058-13.432 30.058-30s-13.457-30-30.058-30z" />
<glyph unicode="&#xe91a;" glyph-name="27" d="M810.667 874.667h-42.667v42.667c0 11.316-4.495 22.168-12.497 30.17s-18.854 12.497-30.17 12.497c-11.315 0-22.168-4.495-30.169-12.497s-12.497-18.854-12.497-30.17v-42.667h-341.334v42.667c0 11.316-4.495 22.168-12.497 30.17s-18.854 12.497-30.169 12.497c-11.316 0-22.169-4.495-30.17-12.497s-12.497-18.854-12.497-30.17v-42.667h-42.667c-56.559-0.068-110.781-22.566-150.774-62.559s-62.491-94.216-62.559-150.775v-512c0.068-56.559 22.566-110.781 62.559-150.775 39.993-39.992 94.216-62.491 150.774-62.558h597.334c56.559 0.068 110.781 22.566 150.775 62.558 39.992 39.993 62.491 94.216 62.558 150.775v512c-0.068 56.559-22.566 110.781-62.558 150.775-39.993 39.993-94.216 62.491-150.775 62.559zM85.333 661.333c0 33.948 13.486 66.506 37.49 90.51s56.562 37.49 90.509 37.49h597.334c33.948 0 66.505-13.485 90.509-37.49s37.491-56.563 37.491-90.51v-42.666h-853.334v42.666zM810.667 21.333h-597.334c-33.948 0-66.505 13.486-90.509 37.491s-37.49 56.562-37.49 90.509v384h853.334v-384c0-33.948-13.486-66.505-37.491-90.509s-56.562-37.491-90.509-37.491zM512 256c35.346 0 64 28.654 64 64s-28.654 64-64 64c-35.346 0-64-28.654-64-64s28.654-64 64-64zM298.667 256c35.345 0 64 28.654 64 64s-28.655 64-64 64c-35.346 0-64-28.654-64-64s28.654-64 64-64zM725.333 256c35.346 0 64 28.654 64 64s-28.654 64-64 64c-35.345 0-64-28.654-64-64s28.655-64 64-64z" />
<glyph unicode="&#xe91b;" glyph-name="28" d="M42.28 531.659l369.356-369.598c55.618-55.653 145.461-55.653 201.078 0l369.357 369.598c89.842 89.903 25.67 244.021-101.252 244.021h-738.713c-126.922 0-189.67-154.118-99.826-244.021z" />
</font>
</defs>
</svg>
